<svg width="23" height="23" viewBox="0 0 23 23" fill="none" xmlns="http://www.w3.org/2000/svg">
<path d="M7.50697 11.5C7.50697 9.48654 9.13348 7.85388 11.1404 7.85388C13.1474 7.85388 14.7748 9.48654 14.7748 11.5C14.7748 13.5135 13.1474 15.1461 11.1404 15.1461C9.13348 15.1461 7.50697 13.5135 7.50697 11.5ZM5.54231 11.5C5.54231 14.6019 8.04859 17.1163 11.1404 17.1163C14.2323 17.1163 16.7386 14.6019 16.7386 11.5C16.7386 8.39813 14.2323 5.88373 11.1404 5.88373C8.04859 5.88373 5.54231 8.39813 5.54231 11.5ZM15.6519 5.66104C15.6518 5.92063 15.7285 6.17441 15.8721 6.39031C16.0158 6.60621 16.22 6.77452 16.4591 6.87395C16.6981 6.97339 16.9611 6.99949 17.2149 6.94895C17.4687 6.8984 17.7019 6.77349 17.8849 6.59001C18.0679 6.40653 18.1926 6.17271 18.2432 5.91813C18.2938 5.66355 18.268 5.39964 18.1691 5.15978C18.0701 4.91991 17.9025 4.71486 17.6875 4.57055C17.4724 4.42624 17.2195 4.34917 16.9607 4.34906H16.9602C16.6134 4.34922 16.2808 4.48749 16.0355 4.73348C15.7902 4.97947 15.6522 5.31308 15.6519 5.66104ZM6.73597 20.4029C5.67305 20.3543 5.09532 20.1767 4.71139 20.0266C4.20239 19.8278 3.83922 19.591 3.45738 19.2085C3.07555 18.8259 2.83919 18.4619 2.6419 17.9513C2.49224 17.5663 2.31519 16.9865 2.26687 15.9202C2.21401 14.7673 2.20346 14.4209 2.20346 11.5001C2.20346 8.57925 2.21489 8.23389 2.26687 7.08002C2.31527 6.01366 2.49363 5.43502 2.6419 5.04889C2.84006 4.53824 3.07607 4.17389 3.45738 3.79081C3.8387 3.40774 4.20152 3.17061 4.71139 2.97269C5.09515 2.82254 5.67305 2.64491 6.73597 2.59644C7.88514 2.54341 8.23035 2.53282 11.1404 2.53282C14.0505 2.53282 14.3961 2.54429 15.5462 2.59644C16.6091 2.645 17.1859 2.82394 17.5708 2.97269C18.0798 3.17061 18.443 3.40826 18.8248 3.79081C19.2066 4.17336 19.4421 4.53824 19.6403 5.04889C19.79 5.43389 19.967 6.01366 20.0153 7.08002C20.0682 8.23389 20.0787 8.57925 20.0787 11.5001C20.0787 14.4209 20.0682 14.7663 20.0153 15.9202C19.9669 16.9865 19.789 17.5661 19.6403 17.9513C19.4421 18.4619 19.2061 18.8263 18.8248 19.2085C18.4435 19.5907 18.0798 19.8278 17.5708 20.0266C17.187 20.1768 16.6091 20.3544 15.5462 20.4029C14.397 20.4559 14.0518 20.4665 11.1404 20.4665C8.22904 20.4665 7.8848 20.4559 6.73597 20.4029ZM6.6457 0.628738C5.4851 0.681763 4.69203 0.866387 3.99944 1.13676C3.28216 1.41597 2.67496 1.79056 2.06819 2.39834C1.46142 3.00611 1.089 3.61625 0.810688 4.33585C0.541187 5.03113 0.357158 5.82632 0.304305 6.99069C0.250579 8.15689 0.238281 8.52973 0.238281 11.5C0.238281 14.4703 0.250579 14.8431 0.304305 16.0093C0.357158 17.1738 0.541187 17.9689 0.810688 18.6642C1.089 19.3833 1.4615 19.9942 2.06819 20.6017C2.67487 21.2092 3.28216 21.5832 3.99944 21.8632C4.69334 22.1336 5.4851 22.3182 6.6457 22.3713C7.80874 22.4243 8.17976 22.4375 11.1404 22.4375C14.1011 22.4375 14.4728 22.4252 15.6352 22.3713C16.7959 22.3182 17.5884 22.1336 18.2814 21.8632C18.9983 21.5832 19.6059 21.2094 20.2127 20.6017C20.8195 19.9939 21.1911 19.3833 21.4702 18.6642C21.7397 17.9689 21.9246 17.1737 21.9766 16.0093C22.0294 14.8422 22.0417 14.4703 22.0417 11.5C22.0417 8.52973 22.0294 8.15689 21.9766 6.99069C21.9237 5.82624 21.7397 5.03069 21.4702 4.33585C21.1911 3.61669 20.8185 3.00708 20.2127 2.39834C19.6069 1.7896 18.9983 1.41597 18.2823 1.13676C17.5884 0.866387 16.7958 0.680888 15.6361 0.628738C14.4736 0.575713 14.102 0.5625 11.1413 0.5625C8.18064 0.5625 7.80874 0.574838 6.6457 0.628738Z" fill="black"/>
</svg>
