<svg width="15" height="25" viewBox="0 0 15 25" fill="none" xmlns="http://www.w3.org/2000/svg">
<path d="M7.71202 4.3626C9.08251 4.3626 10.1973 5.48099 10.1973 6.85593C10.1973 8.22971 9.08222 9.34811 7.71202 9.34811C6.34239 9.34811 5.22732 8.22971 5.22732 6.85593C5.22703 5.48071 6.34268 4.3626 7.71202 4.3626ZM7.71202 12.8757C11.0225 12.8757 13.7146 10.1757 13.7146 6.85593C13.7146 3.53447 11.0227 0.833313 7.71202 0.833313C4.40186 0.833313 1.70944 3.53476 1.70944 6.85593C1.70944 10.1757 4.40186 12.8757 7.71202 12.8757ZM10.1404 17.7877C11.3752 17.5055 12.5536 17.016 13.6258 16.3398C14.0205 16.0907 14.3004 15.6944 14.4039 15.2382C14.5074 14.782 14.4261 14.3033 14.1778 13.9073C14.0549 13.711 13.8948 13.541 13.7064 13.4068C13.518 13.2727 13.3051 13.1772 13.0799 13.1257C12.8547 13.0742 12.6215 13.0677 12.3938 13.1067C12.1661 13.1456 11.9483 13.2292 11.7528 13.3527C9.29369 14.9038 6.12863 14.9026 3.67151 13.3527C3.47607 13.2292 3.25827 13.1456 3.03057 13.1066C2.80288 13.0676 2.56976 13.0741 2.34455 13.1256C2.11935 13.1771 1.90648 13.2727 1.71812 13.4068C1.52977 13.5409 1.36962 13.711 1.24686 13.9073C0.998449 14.3032 0.916954 14.7819 1.0203 15.238C1.12364 15.6942 1.40336 16.0905 1.79793 16.3398C2.87003 17.0158 4.04821 17.5053 5.28277 17.7877L1.92722 21.1547C1.59746 21.4856 1.41225 21.9344 1.41233 22.4024C1.41241 22.8703 1.59778 23.319 1.92765 23.6499C2.25752 23.9807 2.70488 24.1665 3.17131 24.1664C3.63774 24.1663 4.08503 23.9804 4.41479 23.6494L7.71144 20.3415L11.0101 23.6497C11.1732 23.8136 11.3669 23.9436 11.5801 24.0323C11.7934 24.121 12.0219 24.1666 12.2527 24.1666C12.4836 24.1666 12.7121 24.121 12.9254 24.0323C13.1386 23.9436 13.3323 23.8136 13.4954 23.6497C13.659 23.4861 13.7887 23.2917 13.8773 23.0777C13.9659 22.8637 14.0114 22.6342 14.0114 22.4025C14.0114 22.1708 13.9659 21.9413 13.8773 21.7273C13.7887 21.5132 13.659 21.3189 13.4954 21.1552L10.1404 17.7877Z" fill="black"/>
</svg>
