<svg width="22" height="18" viewBox="0 0 22 18" fill="none" xmlns="http://www.w3.org/2000/svg">
<path d="M19.4198 4.71747C19.4198 4.90887 19.4198 5.10028 19.4198 5.26434C19.4198 10.9245 15.1134 17.4597 7.26386 17.4597C4.83813 17.4597 2.60319 16.7487 0.695312 15.5456C1.02238 15.5729 1.3767 15.6003 1.70376 15.6003C3.69341 15.6003 5.54677 14.9167 7.01857 13.7682C5.13794 13.7409 3.55713 12.4831 3.03928 10.7878C3.31183 10.8425 3.55713 10.8698 3.85694 10.8698C4.23851 10.8698 4.62009 10.8151 4.97441 10.7057C3.01202 10.3229 1.54023 8.60028 1.54023 6.52216C1.54023 6.49481 1.54023 6.49481 1.54023 6.46747C2.11259 6.79559 2.76672 6.987 3.47536 7.01434C2.33064 6.24872 1.56749 4.93622 1.56749 3.43231C1.56749 2.63934 1.78553 1.90106 2.13985 1.27216C4.23852 3.86981 7.40014 5.56512 10.9433 5.75653C10.8616 5.45575 10.8343 5.10028 10.8343 4.77216C10.8343 2.39325 12.7422 0.479187 15.1134 0.479187C16.3399 0.479187 17.4574 0.998718 18.2205 1.81903C19.2017 1.62762 20.1012 1.27216 20.9461 0.779968C20.619 1.79169 19.9376 2.612 19.0655 3.15887C19.9376 3.0495 20.7553 2.83075 21.5184 2.47528C20.9733 3.35028 20.2647 4.11591 19.4198 4.71747Z" fill="black"/>
</svg>
