<svg width="24" height="14" viewBox="0 0 24 14" fill="none" xmlns="http://www.w3.org/2000/svg">
<path fill-rule="evenodd" clip-rule="evenodd" d="M23.3845 1.0564C23.5462 0.515592 23.3845 0.118103 22.615 0.118103H20.0705C19.4235 0.118103 19.1255 0.461438 18.9637 0.840146C18.9637 0.840146 17.6697 4.00419 15.8366 6.05946C15.2436 6.65442 14.974 6.8435 14.6505 6.8435C14.4888 6.8435 14.2547 6.65442 14.2547 6.11362V1.0564C14.2547 0.407286 14.067 0.118103 13.5277 0.118103H9.52932C9.12512 0.118103 8.88194 0.41932 8.88194 0.704855C8.88194 1.32023 9.7983 1.46209 9.89281 3.19281V6.95199C9.89281 7.77614 9.7445 7.92565 9.421 7.92565C8.55844 7.92565 6.46037 4.7472 5.21578 1.11055C4.97188 0.403639 4.72725 0.118103 4.07696 0.118103H1.53253C0.805552 0.118103 0.660156 0.461438 0.660156 0.840146C0.660156 1.51624 1.5229 4.86973 4.67672 9.30483C6.77951 12.3334 9.7416 13.9755 12.4372 13.9755C14.0548 13.9755 14.2547 13.6108 14.2547 12.9827V10.6935C14.2547 9.96415 14.4079 9.81865 14.9199 9.81865C15.2975 9.81865 15.9444 10.0079 17.4541 11.4682C19.1793 13.1988 19.4635 13.9755 20.434 13.9755H22.9785C23.7054 13.9755 24.0689 13.6108 23.8592 12.8912C23.6298 12.1739 22.8062 11.1335 21.7132 9.89979C21.1201 9.19652 20.2305 8.43929 19.9611 8.06076C19.5836 7.57393 19.6914 7.35768 19.9611 6.92519C19.9611 6.92519 23.061 2.54406 23.3845 1.05658V1.0564Z" fill="black"/>
</svg>
