<svg width="35" height="35" viewBox="0 0 35 35" fill="none" xmlns="http://www.w3.org/2000/svg">
<g clip-path="url(#clip0)">
<path fill-rule="evenodd" clip-rule="evenodd" d="M26.0897 10.3103C27.0236 10.5626 27.76 11.3014 28.0115 12.2384C28.4784 13.9502 28.4605 17.5179 28.4605 17.5179C28.4605 17.5179 28.4605 21.0676 28.0115 22.7794C27.76 23.7164 27.0236 24.4552 26.0897 24.7074C24.3834 25.1579 17.5584 25.1579 17.5584 25.1579C17.5584 25.1579 10.7513 25.1579 9.02706 24.6894C8.0931 24.4371 7.35672 23.6984 7.10527 22.7614C6.65625 21.0676 6.65625 17.4999 6.65625 17.4999C6.65625 17.4999 6.65625 13.9502 7.10527 12.2384C7.35672 11.3014 8.11106 10.5446 9.02706 10.2923C10.7333 9.84186 17.5584 9.84186 17.5584 9.84186C17.5584 9.84186 24.3834 9.84186 26.0897 10.3103ZM21.0607 17.4996L15.3851 20.7791V14.2202L21.0607 17.4996Z" fill="black"/>
</g>
<defs>
<clipPath id="clip0">
<path d="M0.113281 0H35.0002V35H0.113281V0Z" fill="white"/>
</clipPath>
</defs>
</svg>
